<?xml version="1.0" encoding="iso-8859-1"?>
<!-- Generator: Adobe Illustrator 16.0.0, SVG Export Plug-In . SVG Version: 6.00 Build 0)  -->
<!DOCTYPE svg PUBLIC "-//W3C//DTD SVG 1.1//EN" "http://www.w3.org/Graphics/SVG/1.1/DTD/svg11.dtd">
<svg version="1.1" id="Capa_1" xmlns="http://www.w3.org/2000/svg" xmlns:xlink="http://www.w3.org/1999/xlink" x="0px" y="0px"
	 width="728.656px" height="728.656px" viewBox="0 0 728.656 728.656" style="enable-background:new 0 0 728.656 728.656;"
	 xml:space="preserve">
<g>
	<path fill="red" d="M363.275,728.656c-12.607,0-24.229-4.654-32.724-13.082L71.853,456.877c-8.733-8.699-13.524-20.424-13.524-32.963
		c0-13.32,5.301-25.961,14.917-35.578c18.452-18.553,50.7-19.166,68.506-1.393l171.299,171.264L306.73,63.646
		C306.254,28.986,330.279,0.408,360.284,0c30.277,0,54.676,27.933,55.151,62.288l6.32,489.769L586.87,386.943
		c17.704-17.807,50.055-17.16,68.54,1.393c9.617,9.617,14.918,22.225,14.918,35.545c0,12.572-4.825,24.297-13.524,33.029
		L398.14,715.574c-8.802,8.768-25.351,11.961-32.045,12.947L363.275,728.656z M108.756,407.4c-4.146,0-8.326,1.801-11.452,4.926
		c-3.194,3.195-4.996,7.408-4.996,11.588c0,2.447,0.612,6.016,3.534,8.938l258.698,258.699c2.107,2.105,4.995,3.16,8.699,3.16v16.99
		l0.204-16.99c2.854-0.578,9.379-2.447,11.248-3.67l258.053-258.156c2.956-2.955,3.567-6.49,3.567-8.971
		c0-4.18-1.835-8.359-4.961-11.484c-5.776-5.777-15.428-6.457-20.456-1.428L437.659,584.17
		c-19.709,17.193-49.477,3.16-49.782-17.604l-6.422-503.871c-0.204-15.563-9.583-28.714-20.525-28.714
		c-11.282,0.136-20.423,13.524-20.219,29.224l6.456,503.871c0.068,6.287-2.413,12.268-7,16.924
		c-11.316,11.484-35.272,12.268-48.355,0.951L117.727,410.967C114.771,408.012,111.271,407.4,108.756,407.4z"/>
</g>
<g>
</g>
<g>
</g>
<g>
</g>
<g>
</g>
<g>
</g>
<g>
</g>
<g>
</g>
<g>
</g>
<g>
</g>
<g>
</g>
<g>
</g>
<g>
</g>
<g>
</g>
<g>
</g>
<g>
</g>
</svg>
